<svg xmlns="http://www.w3.org/2000/svg" xmlns:xlink="http://www.w3.org/1999/xlink" width="40" zoomAndPan="magnify" viewBox="0 0 30 30.000001" height="40" preserveAspectRatio="xMidYMid meet" version="1.2"><defs><clipPath id="75a39449ed"><path d="M 4.257812 0 L 27.484375 0 L 27.484375 29 L 4.257812 29 Z M 4.257812 0 "/></clipPath></defs><g id="22ba91de93"><g clip-rule="nonzero" clip-path="url(#75a39449ed)"><path style=" stroke:none;fill-rule:nonzero;fill:#0097b2;fill-opacity:1;" d="M 27.421875 1.714844 C 27.390625 1.695312 27.351562 1.695312 27.320312 1.703125 C 27.066406 1.734375 26.894531 2.003906 26.640625 2.046875 C 26.65625 1.957031 26.691406 1.875 26.726562 1.792969 C 26.949219 1.277344 27.179688 0.769531 27.417969 0.261719 C 27.453125 0.1875 27.484375 0.078125 27.410156 0.0351562 C 27.367188 0.0078125 27.308594 0.0234375 27.273438 0.0585938 C 27.234375 0.09375 27.214844 0.140625 27.195312 0.1875 C 27.058594 0.488281 26.863281 0.753906 26.671875 1.019531 C 26.550781 1.183594 26.429688 1.351562 26.277344 1.488281 C 26.097656 1.65625 25.882812 1.777344 25.710938 1.949219 C 25.601562 2.0625 25.515625 2.1875 25.410156 2.304688 C 25.183594 2.554688 24.878906 2.738281 24.546875 2.820312 C 23.707031 3.027344 22.847656 3.1875 22.003906 3.359375 C 21.648438 3.433594 21.285156 3.507812 20.953125 3.65625 C 20.59375 3.8125 20.273438 4.054688 20.019531 4.355469 C 19.652344 4.792969 18.929688 4.683594 18.433594 4.972656 C 18.304688 5.046875 18.183594 5.140625 18.042969 5.195312 C 17.886719 5.25 17.722656 5.257812 17.558594 5.28125 C 16.964844 5.359375 16.402344 5.640625 15.976562 6.066406 C 15.914062 5.746094 16.070312 5.417969 16.019531 5.09375 C 16.011719 5.058594 16.003906 5.023438 15.984375 4.996094 C 15.964844 4.976562 15.941406 4.960938 15.925781 4.9375 C 15.898438 4.902344 15.898438 4.859375 15.898438 4.816406 C 15.890625 4.417969 15.808594 4.015625 15.664062 3.644531 C 15.632812 3.558594 15.59375 3.476562 15.546875 3.402344 C 15.507812 3.347656 15.460938 3.292969 15.410156 3.246094 C 15.0625 2.910156 14.460938 2.734375 13.972656 2.730469 C 13.535156 2.726562 13.097656 2.941406 12.828125 3.289062 C 12.472656 3.757812 12.441406 4.382812 12.410156 4.96875 C 12.40625 5.007812 12.40625 5.050781 12.394531 5.085938 C 12.378906 5.132812 12.355469 5.171875 12.335938 5.21875 C 12.277344 5.359375 12.296875 5.523438 12.332031 5.675781 C 12.378906 5.878906 12.445312 6.078125 12.53125 6.269531 C 12.550781 6.308594 12.570312 6.347656 12.609375 6.367188 C 12.636719 6.378906 12.671875 6.378906 12.703125 6.390625 C 12.777344 6.414062 12.816406 6.5 12.820312 6.578125 C 12.824219 6.65625 12.804688 6.738281 12.804688 6.816406 C 12.808594 6.96875 12.886719 7.105469 12.949219 7.246094 C 13.015625 7.382812 13.066406 7.539062 13.015625 7.683594 C 12.960938 7.839844 12.792969 7.945312 12.765625 8.109375 C 12.644531 8.214844 12.496094 8.316406 12.375 8.421875 C 12.296875 8.488281 12.21875 8.554688 12.148438 8.628906 C 12.082031 8.699219 12.023438 8.777344 11.964844 8.851562 L 11.4375 9.527344 C 11.277344 9.726562 11.0625 10.082031 10.957031 10.316406 C 10.957031 10.316406 10.953125 10.320312 10.953125 10.324219 C 10.714844 10.847656 10.597656 11.417969 10.601562 11.992188 C 10.609375 12.523438 10.570312 13.058594 10.496094 13.585938 C 10.441406 13.949219 10.488281 14.363281 10.292969 14.675781 C 10.222656 14.785156 10.125 14.875 10.027344 14.96875 C 9.5 15.464844 9.035156 16.035156 8.65625 16.652344 C 8.332031 17.179688 7.808594 17.59375 7.53125 18.144531 C 7.453125 18.292969 7.386719 18.453125 7.289062 18.585938 C 7.226562 18.671875 7.152344 18.746094 7.105469 18.835938 C 7.039062 18.953125 7.019531 19.089844 6.996094 19.222656 C 6.9375 19.546875 6.855469 19.867188 6.757812 20.179688 C 6.582031 20.726562 6.339844 21.265625 6.265625 21.835938 C 6.242188 22.011719 6.234375 22.191406 6.222656 22.367188 C 6.160156 23.503906 6.101562 24.640625 6.039062 25.777344 C 6.070312 25.800781 6.027344 25.84375 6 25.871094 C 5.96875 25.894531 5.933594 25.90625 5.902344 25.929688 C 5.816406 25.988281 5.796875 26.105469 5.730469 26.183594 C 5.640625 26.296875 5.472656 26.316406 5.378906 26.421875 C 5.300781 26.511719 5.292969 26.636719 5.265625 26.753906 C 5.167969 27.179688 4.832031 27.507812 4.515625 27.8125 C 4.421875 27.898438 4.328125 27.992188 4.296875 28.117188 C 4.257812 28.273438 4.332031 28.433594 4.339844 28.597656 C 4.339844 28.625 4.339844 28.65625 4.355469 28.675781 C 4.359375 28.683594 4.363281 28.6875 4.367188 28.691406 C 4.433594 28.753906 4.527344 28.773438 4.621094 28.773438 L 5.859375 28.753906 C 5.964844 28.75 6.074219 28.75 6.171875 28.714844 C 6.335938 28.660156 6.460938 28.523438 6.613281 28.445312 C 6.796875 28.347656 7.015625 28.34375 7.214844 28.285156 C 7.414062 28.230469 7.621094 28.089844 7.640625 27.882812 C 7.652344 27.75 7.582031 27.625 7.523438 27.503906 C 7.371094 27.171875 7.304688 26.804688 7.332031 26.445312 C 7.335938 26.382812 7.34375 26.316406 7.3125 26.261719 C 7.289062 26.222656 7.25 26.195312 7.222656 26.15625 C 7.179688 26.09375 7.183594 26.011719 7.1875 25.933594 C 7.277344 25.003906 7.882812 24.214844 8.226562 23.347656 C 8.550781 22.523438 8.464844 21.574219 8.632812 20.699219 C 8.652344 20.589844 8.675781 20.476562 8.730469 20.375 C 8.738281 20.382812 8.734375 20.378906 8.730469 20.367188 C 8.726562 20.359375 8.738281 20.347656 8.742188 20.34375 C 9.105469 20.027344 9.464844 19.714844 9.824219 19.402344 C 9.914062 19.324219 10.015625 19.238281 10.132812 19.21875 C 10.355469 19.179688 10.542969 19.351562 10.742188 19.457031 C 10.84375 19.511719 10.941406 19.648438 10.964844 19.761719 C 11.101562 20.515625 11.210938 21.277344 11.292969 22.039062 C 11.304688 22.152344 11.316406 22.261719 11.304688 22.375 C 11.273438 22.660156 11.09375 22.933594 11.160156 23.207031 C 10.691406 23.226562 10.230469 23.574219 10.109375 24.027344 C 10.070312 24.183594 10.0625 24.347656 10.070312 24.507812 C 10.074219 24.644531 10.085938 24.785156 10.136719 24.910156 C 10.179688 25.019531 10.246094 25.117188 10.3125 25.210938 C 10.492188 25.453125 10.691406 25.679688 10.910156 25.882812 C 10.800781 26.175781 10.753906 26.539062 10.855469 26.835938 C 10.921875 27.035156 11.027344 27.21875 11.15625 27.378906 C 11.273438 27.527344 11.449219 27.613281 11.632812 27.613281 L 12.6875 27.613281 C 12.863281 27.613281 13.035156 27.535156 13.148438 27.402344 C 13.230469 27.300781 13.304688 27.195312 13.359375 27.074219 C 13.546875 26.675781 13.496094 26.175781 13.230469 25.824219 C 13.472656 25.542969 13.730469 25.222656 13.875 24.878906 C 14.015625 24.539062 14.050781 24.132812 13.882812 23.804688 C 13.804688 23.65625 13.691406 23.53125 13.578125 23.40625 C 13.566406 23.308594 13.535156 23.222656 13.523438 23.121094 C 13.511719 23.015625 13.5 22.902344 13.460938 22.804688 C 13.363281 22.574219 13.132812 22.4375 12.914062 22.324219 C 12.789062 22.257812 12.648438 22.089844 12.597656 21.957031 C 12.5625 21.871094 12.507812 21.78125 12.503906 21.699219 C 12.472656 21.316406 12.441406 20.929688 12.410156 20.546875 C 12.398438 20.417969 12.390625 20.289062 12.394531 20.160156 C 12.398438 19.957031 12.441406 19.753906 12.46875 19.554688 C 12.53125 19.113281 12.523438 18.660156 12.453125 18.222656 C 12.445312 18.175781 12.4375 18.128906 12.449219 18.082031 C 12.460938 18.039062 12.492188 18.003906 12.523438 17.96875 L 12.910156 17.523438 C 13.003906 17.417969 13.191406 17.332031 13.328125 17.332031 C 13.90625 17.324219 14.503906 17.582031 15.050781 17.398438 C 15.1875 17.351562 15.316406 17.277344 15.457031 17.265625 C 15.601562 17.253906 15.769531 17.328125 15.792969 17.46875 C 16.105469 17.644531 16.324219 17.925781 16.546875 18.207031 C 16.730469 18.4375 16.914062 18.667969 17.097656 18.898438 C 17.203125 19.027344 17.332031 19.171875 17.496094 19.167969 C 17.59375 19.164062 17.679688 19.113281 17.761719 19.058594 C 17.984375 18.90625 18.1875 18.730469 18.375 18.539062 C 18.761719 18.757812 19.148438 18.960938 19.535156 19.179688 C 19.652344 19.25 19.773438 19.316406 19.871094 19.410156 C 20.0625 19.59375 20.15625 19.859375 20.183594 20.121094 C 20.214844 20.382812 20.1875 20.644531 20.175781 20.910156 C 20.160156 21.234375 20.164062 21.558594 20.1875 21.882812 C 20.210938 22.167969 20.25 22.457031 20.34375 22.726562 C 20.410156 22.921875 20.507812 23.105469 20.59375 23.292969 C 20.949219 24.066406 21.148438 24.914062 21.175781 25.765625 C 21.1875 26.136719 20.996094 26.492188 20.976562 26.863281 C 20.96875 26.996094 20.992188 27.128906 20.96875 27.261719 C 20.941406 27.453125 20.820312 27.628906 20.820312 27.824219 C 20.820312 27.894531 20.839844 27.972656 20.898438 28.015625 C 20.9375 28.042969 20.984375 28.054688 21.027344 28.066406 C 21.246094 28.113281 21.476562 28.175781 21.621094 28.34375 C 21.660156 28.386719 21.691406 28.4375 21.738281 28.480469 C 21.839844 28.574219 21.988281 28.597656 22.128906 28.609375 C 22.574219 28.648438 23.027344 28.648438 23.476562 28.605469 C 23.621094 28.59375 23.792969 28.550781 23.835938 28.414062 C 23.851562 28.371094 23.847656 28.324219 23.84375 28.28125 C 23.828125 27.996094 23.789062 27.695312 23.609375 27.476562 C 23.488281 27.324219 23.304688 27.222656 23.175781 27.078125 C 23.007812 26.894531 22.929688 26.648438 22.859375 26.410156 C 22.828125 26.300781 22.796875 26.191406 22.726562 26.101562 C 22.691406 26.058594 22.648438 26.023438 22.613281 25.980469 C 22.53125 25.875 22.5 25.734375 22.40625 25.648438 C 22.382812 25.582031 22.363281 25.527344 22.339844 25.464844 C 22.371094 25.222656 22.363281 24.96875 22.367188 24.730469 C 22.371094 24.496094 22.359375 24.261719 22.359375 24.027344 C 22.351562 23.5 22.382812 22.976562 22.414062 22.449219 C 22.472656 21.484375 22.332031 20.519531 22.007812 19.605469 C 21.871094 19.210938 21.785156 18.804688 21.792969 18.378906 C 21.796875 18.21875 21.773438 18.058594 21.707031 17.914062 C 21.394531 17.222656 20.785156 16.742188 20.417969 16.078125 C 20.171875 15.636719 19.644531 15.40625 19.34375 15 C 19.261719 14.886719 19.1875 14.769531 19.101562 14.660156 C 18.8125 14.308594 18.382812 14.054688 18.242188 13.621094 C 18.222656 13.5625 18.210938 13.5 18.179688 13.441406 C 18.078125 13.253906 17.828125 13.214844 17.617188 13.195312 C 17.605469 13.164062 17.546875 13.164062 17.511719 13.15625 C 17.464844 13.148438 17.457031 13.089844 17.460938 13.042969 C 17.472656 12.621094 17.496094 12.199219 17.523438 11.78125 C 17.550781 11.433594 17.582031 11.089844 17.582031 10.742188 C 17.585938 10.378906 17.554688 10.019531 17.527344 9.660156 C 17.457031 8.855469 17.769531 8.109375 17.84375 7.304688 C 17.945312 7.21875 18.089844 7.230469 18.21875 7.195312 C 18.722656 7.0625 19.113281 6.6875 19.539062 6.394531 C 20.019531 6.066406 20.554688 5.835938 21.089844 5.609375 C 22.171875 5.148438 23.214844 4.578125 24.203125 3.941406 C 24.3125 3.871094 24.421875 3.800781 24.535156 3.742188 C 24.664062 3.667969 24.804688 3.605469 24.941406 3.542969 C 25.175781 3.4375 25.414062 3.328125 25.652344 3.21875 C 25.78125 3.160156 25.914062 3.148438 26.050781 3.109375 C 26.4375 2.988281 26.644531 2.574219 26.976562 2.347656 C 27.082031 2.28125 27.195312 2.230469 27.292969 2.152344 C 27.394531 2.078125 27.476562 1.96875 27.476562 1.84375 C 27.476562 1.796875 27.460938 1.742188 27.421875 1.714844 Z M 12.433594 24.195312 C 12.449219 24.183594 12.460938 24.164062 12.476562 24.152344 C 12.523438 24.121094 12.585938 24.136719 12.632812 24.164062 C 12.679688 24.191406 12.722656 24.226562 12.777344 24.238281 C 12.859375 24.257812 12.945312 24.214844 13 24.148438 C 13.050781 24.085938 13.078125 24.003906 13.105469 23.921875 C 13.199219 23.960938 13.265625 24.046875 13.300781 24.136719 C 13.335938 24.230469 13.34375 24.332031 13.34375 24.429688 C 13.339844 24.523438 13.332031 24.617188 13.300781 24.707031 C 13.25 24.851562 13.152344 24.972656 13.050781 25.089844 C 12.996094 25.15625 12.941406 25.222656 12.886719 25.289062 C 12.667969 25.070312 12.351562 24.964844 12.046875 24.988281 C 11.738281 25.007812 11.449219 25.15625 11.234375 25.375 C 11.097656 25.203125 10.960938 25.03125 10.820312 24.859375 C 10.765625 24.785156 10.703125 24.710938 10.667969 24.621094 C 10.597656 24.453125 10.628906 24.25 10.734375 24.101562 C 10.816406 23.980469 10.96875 23.851562 11.117188 23.832031 C 11.210938 23.816406 11.207031 23.855469 11.257812 23.929688 C 11.304688 24 11.359375 24.0625 11.421875 24.117188 C 11.480469 24.164062 11.574219 24.203125 11.625 24.148438 C 11.636719 24.136719 11.644531 24.117188 11.660156 24.105469 C 11.699219 24.074219 11.753906 24.09375 11.792969 24.117188 C 11.871094 24.160156 11.964844 24.207031 12.039062 24.160156 C 12.058594 24.148438 12.074219 24.128906 12.09375 24.121094 C 12.148438 24.101562 12.199219 24.148438 12.25 24.179688 C 12.304688 24.21875 12.382812 24.234375 12.433594 24.195312 Z M 12.433594 24.195312 "/></g></g></svg>